<svg xmlns="http://www.w3.org/2000/svg" viewBox="0 0 100 100"><g id="Layer_2" data-name="Layer 2"><g id="Layer_1-2" data-name="Layer 1"><circle cx="50" cy="50" r="50" fill="#191326"/><path id="Bottom_Ring" data-name="Bottom Ring" d="M43.26,75.29A18.55,18.55,0,1,0,24.71,56.74,18.54,18.54,0,0,0,43.26,75.29Zm0,6.74A25.29,25.29,0,1,1,68.54,56.74,25.29,25.29,0,0,1,43.26,82Z" fill="#fbcc5c"/><path id="Top_Ring" data-name="Top Ring" d="M56.74,61.8A18.55,18.55,0,1,0,38.2,43.26,18.54,18.54,0,0,0,56.74,61.8Zm0,6.74A25.29,25.29,0,1,1,82,43.26,25.28,25.28,0,0,1,56.74,68.54Z" fill="#35d07f"/><path id="Rings_Overlap" data-name="Rings Overlap" d="M57.58,68.54a18.35,18.35,0,0,0,3.67-7.29,18.42,18.42,0,0,0,7.29-3.67,25.16,25.16,0,0,1-2,9A25.16,25.16,0,0,1,57.58,68.54ZM38.75,38.75a18.42,18.42,0,0,0-7.29,3.67,25.16,25.16,0,0,1,2-9,25.38,25.38,0,0,1,9-2A18.35,18.35,0,0,0,38.75,38.75Z" fill="#5ea33b"/></g></g></svg>