<svg width="32" height="32" viewBox="0 0 32 32" fill="none" xmlns="http://www.w3.org/2000/svg">
<rect width="32" height="32" rx="16" fill="white"/>
<path d="M13.4737 25.4738C17.3112 25.4738 20.4211 22.3639 20.4211 18.5264C20.4211 14.6889 17.3112 11.5791 13.4737 11.5791C9.63621 11.5791 6.52632 14.6889 6.52632 18.5264C6.52632 22.3639 9.63621 25.4738 13.4737 25.4738ZM13.4737 28.0001C8.24168 28.0001 4 23.7584 4 18.5264C4 13.2944 8.24168 9.05273 13.4737 9.05273C18.7057 9.05273 22.9474 13.2944 22.9474 18.5264C22.9474 23.7584 18.7057 28.0001 13.4737 28.0001Z" fill="#FBCC5C"/>
<path d="M18.5264 20.4211C22.3639 20.4211 25.4738 17.3112 25.4738 13.4737C25.4738 9.63621 22.3639 6.52632 18.5264 6.52632C14.6889 6.52632 11.5791 9.63621 11.5791 13.4737C11.5791 17.3112 14.6889 20.4211 18.5264 20.4211ZM18.5264 22.9474C13.2944 22.9474 9.05273 18.7057 9.05273 13.4737C9.05273 8.24168 13.2944 4 18.5264 4C23.7584 4 28.0001 8.24168 28.0001 13.4737C28.0001 18.7057 23.7584 22.9474 18.5264 22.9474Z" fill="#35D07F"/>
<path d="M18.8397 22.9475C19.4965 22.1517 19.9664 21.2195 20.2165 20.2165C21.2169 19.9664 22.1492 19.4965 22.9475 18.8397C22.9121 19.9993 22.662 21.1412 22.2098 22.2123C21.1412 22.662 19.9993 22.9121 18.8397 22.9475ZM11.7837 11.7837C10.7833 12.0338 9.85105 12.5037 9.05273 13.1605C9.0881 12.0009 9.33821 10.8591 9.79042 9.79042C10.8591 9.34073 12.0035 9.09063 13.1605 9.05273C12.5037 9.84852 12.0338 10.7807 11.7837 11.7837Z" fill="#5EA33B"/>
</svg>
