<?xml version="1.0" encoding="utf-8"?>
<!-- Generator: Adobe Illustrator 25.4.1, SVG Export Plug-In . SVG Version: 6.00 Build 0)  -->
<svg version="1.1" id="Layer_1" xmlns="http://www.w3.org/2000/svg" xmlns:xlink="http://www.w3.org/1999/xlink" x="0px" y="0px"
	 viewBox="0 0 239.5 60.4" style="enable-background:new 0 0 239.5 60.4;" xml:space="preserve">
<style type="text/css">
	.st0{fill:#0C2866;}
	.st1{fill:#2C3239;}
	.st2{fill:#0C2866;stroke:#2C3239;stroke-width:0.8138;stroke-linecap:round;stroke-linejoin:round;stroke-miterlimit:10;}
	.st3{fill:#FFFFFF;stroke:#2C3239;stroke-width:0.8504;stroke-miterlimit:10;}
	.st4{opacity:0.3;fill:#FFCB40;}
	.st5{fill:#FFFFFF;}
	.st6{fill:#F8B73F;stroke:#2C3239;stroke-width:0.9217;stroke-miterlimit:10;}
	.st7{fill:#00D278;stroke:#2C3239;stroke-width:0.9217;stroke-miterlimit:10;}
	.st8{fill:none;stroke:#2C3239;stroke-width:0.9217;stroke-miterlimit:10;}
	.st9{fill:#00D278;}
	.st10{fill:#FFCB40;}
</style>
<g>
	<g>
		<g>
			<path class="st0" d="M41.5,59.8c-0.2,0-0.3,0-0.5,0l-23.5-1.5c-2.5-0.2-4.7-1.6-5.9-3.8l-10-18.1c-1.4-2.5-1.2-5.7,0.5-8l1.4-1.9
				L2.9,26c-0.5-0.4-0.9-1.1-0.9-1.8c0-0.7,0.2-1.4,0.7-1.9l7.7-8.2c0.5-0.5,1.1-0.8,1.8-0.8c0.1,0,0.1,0,0.2,0l0.6,0l1.2-1.6
				c1.4-1.9,3.6-3,5.9-3c0.2,0,0.3,0,0.5,0l9.2,0.6c0.5-1.3,1.6-3.6,3.7-5.1c-0.1-0.2-0.1-0.5-0.1-0.7c0-1.6,1.3-2.8,2.8-2.8
				s2.8,1.3,2.8,2.8c0,1.6-1.3,2.9-2.8,2.9c-0.1,0-0.2,0-0.3,0c-0.4,0.8-0.9,2.1-0.7,3.3l8.8,0.6c2.5,0.2,4.7,1.6,5.9,3.8l10,18.1
				c1.4,2.5,1.2,5.7-0.5,8L47.3,56.7C46,58.6,43.8,59.8,41.5,59.8C41.5,59.8,41.5,59.8,41.5,59.8z"/>
			<path class="st1" d="M36.2,1.3c1.2,0,2.2,1,2.2,2.2c0,1.2-1,2.2-2.2,2.2c-0.2,0-0.4,0-0.6-0.1c-0.6,1.1-1.4,2.9-0.9,4.7l9.3,0.6
				c2.3,0.1,4.3,1.4,5.4,3.4l10,18.1c1.3,2.3,1.1,5.2-0.5,7.3L46.8,56.4c-1.3,1.7-3.3,2.7-5.4,2.7c-0.1,0-0.3,0-0.4,0l-23.5-1.5
				c-2.3-0.1-4.3-1.4-5.4-3.4l-10-18.1c-1.3-2.3-1.1-5.2,0.5-7.3l1.8-2.4l-1-0.8c-0.8-0.7-0.9-2-0.2-2.8l7.7-8.2
				c0.4-0.4,0.8-0.6,1.4-0.6c0,0,0.1,0,0.1,0l0.9,0.1l1.4-1.9c1.3-1.7,3.3-2.7,5.4-2.7c0.1,0,0.3,0,0.4,0l9.7,0.6
				c0.3-1,1.5-3.9,3.9-5.4l0.2,0c-0.2-0.3-0.3-0.7-0.3-1.1C34.1,2.3,35,1.3,36.2,1.3 M36.2,0c-1.9,0-3.5,1.6-3.5,3.5
				c0,0.2,0,0.3,0,0.5c-1.8,1.4-2.9,3.3-3.4,4.7l-8.8-0.6c-0.2,0-0.3,0-0.5,0c-2.5,0-4.9,1.2-6.4,3.3l-1,1.3l-0.2,0
				c-0.1,0-0.1,0-0.2,0c-0.9,0-1.7,0.4-2.3,1l-7.7,8.2c-0.6,0.6-0.9,1.5-0.9,2.4c0.1,0.9,0.5,1.7,1.1,2.3l0.1,0.1L1.5,28
				C-0.3,30.5-0.5,34,1,36.7l10,18.1c1.3,2.4,3.7,3.9,6.5,4.1L41,60.4c0.2,0,0.3,0,0.5,0c2.5,0,4.9-1.2,6.4-3.3L60,40.4
				c1.8-2.5,2.1-5.9,0.5-8.7l-10-18.1c-1.3-2.4-3.7-3.9-6.5-4.1L35.9,9c0-0.7,0.3-1.4,0.5-2c1.9-0.1,3.4-1.6,3.4-3.5
				C39.7,1.6,38.2,0,36.2,0L36.2,0z"/>
		</g>
		<g>
			<path class="st0" d="M58.1,30.4c-0.1,0-0.1,0-0.2,0c-0.2,0-0.3-0.2-0.4-0.3l-7.4-13.4c-0.1-0.2-0.1-0.5,0-0.7
				c0.1-0.2,0.3-0.3,0.5-0.3c0,0,1,0.1,1,0.1c0.7,0,1.4,0.4,1.9,1l6.7,9.1c0.4,0.6,0.6,1.3,0.5,2c-0.1,0.7-0.5,1.3-1.1,1.7l-1.1,0.7
				C58.3,30.3,58.2,30.4,58.1,30.4z"/>
			<path class="st1" d="M50.7,16.4l0.9,0.1c0.6,0,1.1,0.3,1.4,0.8l6.7,9.1c0.6,0.9,0.4,2.1-0.5,2.7l-1.1,0.7L50.7,16.4 M50.7,15.1
				c-0.4,0-0.9,0.2-1.1,0.6c-0.3,0.4-0.3,0.9,0,1.3l7.4,13.4c0.2,0.3,0.5,0.5,0.8,0.6c0.1,0,0.2,0,0.3,0c0.2,0,0.5-0.1,0.7-0.2
				l1.1-0.7c0.7-0.5,1.3-1.2,1.4-2.1c0.2-0.9,0-1.8-0.6-2.5L54,16.4c-0.6-0.8-1.4-1.2-2.4-1.3L50.7,15.1
				C50.7,15.1,50.7,15.1,50.7,15.1L50.7,15.1z"/>
		</g>
	</g>
	<g>
		<path class="st2" d="M30.1,10.3c0,0,1.1-3.9,4-5.7l2,0.1c0,0-2.4,3.1-1.4,5.9"/>
		<g>
			<path class="st0" d="M41.5,59.5c-0.1,0-0.3,0-0.4,0L17.5,58c-2.4-0.2-4.5-1.5-5.7-3.6l-10-18.1c-1.4-2.4-1.2-5.5,0.5-7.7
				l12.2-16.7c1.3-1.8,3.5-2.9,5.7-2.9c0.1,0,0.3,0,0.4,0l23.5,1.5c2.4,0.2,4.5,1.5,5.7,3.6l10,18.1c1.4,2.4,1.2,5.5-0.5,7.7
				L47.2,56.6C45.8,58.4,43.7,59.5,41.5,59.5C41.5,59.5,41.5,59.5,41.5,59.5z"/>
			<path class="st1" d="M20.1,9.3c0.1,0,0.3,0,0.4,0L44,10.8c2.3,0.1,4.3,1.4,5.4,3.4l10,18.1c1.3,2.3,1.1,5.2-0.5,7.3L46.8,56.4
				c-1.3,1.7-3.3,2.7-5.4,2.7c-0.1,0-0.3,0-0.4,0l-23.5-1.5c-2.3-0.1-4.3-1.4-5.4-3.4l-10-18.1c-1.3-2.3-1.1-5.2,0.5-7.3l12.2-16.7
				C16,10.4,18,9.3,20.1,9.3 M20.1,8.5c-2.4,0-4.6,1.2-6,3.1L1.9,28.3c-1.7,2.4-1.9,5.6-0.5,8.2l10,18.1c1.2,2.3,3.5,3.7,6.1,3.9
				L41,59.9c0.2,0,0.3,0,0.5,0c2.4,0,4.6-1.2,6-3.1l12.2-16.7c1.7-2.4,1.9-5.6,0.5-8.2l-10-18.1c-1.2-2.3-3.5-3.7-6.1-3.9L20.6,8.5
				C20.4,8.5,20.3,8.5,20.1,8.5L20.1,8.5z"/>
		</g>
		<g>
			<path class="st0" d="M39.2,54.3c-0.1,0-0.2,0-0.4,0l-18.6-1.2c-1.9-0.1-3.6-1.2-4.6-2.9L7.8,35.9c-1.1-2-0.9-4.4,0.4-6.2
				l9.6-13.2c1.1-1.5,2.8-2.3,4.6-2.3c0.1,0,0.2,0,0.4,0l18.6,1.2c1.9,0.1,3.6,1.2,4.6,2.9l7.9,14.3c1.1,2,0.9,4.4-0.4,6.2
				l-9.6,13.2C42.7,53.4,41,54.3,39.2,54.3L39.2,54.3z"/>
			<path class="st1" d="M22.4,14.6c0.1,0,0.2,0,0.3,0l18.6,1.2c1.8,0.1,3.4,1.1,4.3,2.7l7.9,14.3c1,1.8,0.9,4.1-0.4,5.8l-9.6,13.2
				c-1,1.4-2.6,2.2-4.2,2.2c-0.1,0-0.2,0-0.3,0l-18.6-1.2c-1.8-0.1-3.4-1.1-4.3-2.7L8.2,35.7c-1-1.8-0.9-4.1,0.4-5.8l9.6-13.2
				C19.1,15.4,20.7,14.6,22.4,14.6 M22.4,13.8c-1.9,0-3.8,0.9-4.9,2.5L7.9,29.4c-1.4,1.9-1.6,4.5-0.4,6.6l7.9,14.3
				c1,1.8,2.9,3,4.9,3.1l18.6,1.2c0.1,0,0.3,0,0.4,0c1.9,0,3.8-0.9,4.9-2.5L53.7,39c1.4-1.9,1.6-4.5,0.4-6.6l-7.9-14.3
				c-1-1.8-2.9-3-4.9-3.1l-18.6-1.2C22.6,13.8,22.5,13.8,22.4,13.8L22.4,13.8z"/>
		</g>
		<g>
			<path class="st0" d="M39.5,54.3c-0.1,0-0.2,0-0.3,0L20,53.1c-1.8-0.1-3.4-1.1-4.3-2.6L7.9,37.7c-1.2-2-1.1-4.5,0.4-6.3l9.3-11.7
				c1-1.3,2.6-2,4.2-2c0.1,0,0.2,0,0.3,0l19.1,1.2c1.8,0.1,3.3,1.1,4.3,2.6l7.8,12.8c1.2,2,1.1,4.5-0.4,6.3l-9.3,11.7
				C42.7,53.6,41.1,54.3,39.5,54.3z"/>
			<path class="st1" d="M21.9,18c0.1,0,0.2,0,0.3,0l19.1,1.2c1.6,0.1,3.1,1,4,2.4l7.8,12.8c1.1,1.8,1,4.2-0.4,5.9L43.4,52
				c-1,1.2-2.4,1.9-3.9,1.9c-0.1,0-0.2,0-0.3,0l-19.1-1.2c-1.6-0.1-3.1-1-4-2.4L8.3,37.5c-1.1-1.8-1-4.2,0.4-5.9L18,19.9
				C18.9,18.7,20.4,18,21.9,18 M21.9,17.2c-1.8,0-3.4,0.8-4.5,2.2L8,31.1c-1.6,1.9-1.7,4.7-0.4,6.8l7.8,12.8c1,1.6,2.7,2.7,4.6,2.8
				l19.1,1.2c0.1,0,0.2,0,0.4,0c1.8,0,3.4-0.8,4.5-2.2l9.3-11.7c1.6-1.9,1.7-4.7,0.4-6.8L46,21.2c-1-1.6-2.7-2.7-4.6-2.8l-19.1-1.2
				C22.1,17.2,22,17.2,21.9,17.2L21.9,17.2z"/>
		</g>
		<g>
			<path class="st0" d="M39.1,42.5c-2.2-0.1-3.9-2.6-3.7-5.6c0.2-2.8,2-5.1,4.1-5.1c0.1,0,0.1,0,0.2,0c2.2,0.1,3.9,2.6,3.7,5.6
				c-0.2,2.8-2,5.1-4.1,5.1C39.2,42.5,39.2,42.5,39.1,42.5z"/>
			<path class="st1" d="M39.6,32.3c0.1,0,0.1,0,0.2,0c2,0.1,3.5,2.4,3.3,5.1c-0.2,2.6-1.8,4.7-3.7,4.7c-0.1,0-0.1,0-0.2,0
				c-2-0.1-3.5-2.4-3.3-5.1C36,34.3,37.6,32.3,39.6,32.3 M39.6,31.5C39.6,31.5,39.6,31.5,39.6,31.5c-2.4,0-4.4,2.4-4.6,5.5
				c-0.2,3.2,1.6,5.9,4.1,6c0.1,0,0.1,0,0.2,0c2.4,0,4.4-2.4,4.6-5.5c0.2-3.2-1.6-5.9-4.1-6C39.7,31.5,39.6,31.5,39.6,31.5
				L39.6,31.5z"/>
		</g>
		<g>
			<path class="st0" d="M36.2,6.1c-1.4,0-2.6-1.2-2.6-2.6s1.2-2.6,2.6-2.6s2.6,1.2,2.6,2.6S37.7,6.1,36.2,6.1z"/>
			<path class="st1" d="M36.2,1.3c1.2,0,2.2,1,2.2,2.2s-1,2.2-2.2,2.2c-1.2,0-2.2-1-2.2-2.2S35,1.3,36.2,1.3 M36.2,0.5
				c-1.6,0-3,1.4-3,3s1.3,3,3,3s3-1.4,3-3S37.9,0.5,36.2,0.5L36.2,0.5z"/>
		</g>
		<g>
			<path class="st0" d="M4.4,26.7c-0.1,0-0.2,0-0.3-0.1l-1-0.8c-0.5-0.4-0.8-1-0.8-1.6c0-0.6,0.2-1.3,0.6-1.7l7.7-8.2
				c0.4-0.5,1-0.7,1.6-0.7l0.1,0l0.9,0.1c0.1,0,0.3,0.1,0.3,0.2c0.1,0.1,0,0.3,0,0.4l-9,12.3C4.6,26.7,4.5,26.7,4.4,26.7
				C4.4,26.7,4.4,26.7,4.4,26.7z"/>
			<path class="st1" d="M12.3,13.9c0,0,0.1,0,0.1,0l0.9,0.1l-9,12.3l-1-0.8c-0.8-0.7-0.9-2-0.2-2.8l7.7-8.2
				C11.3,14.1,11.8,13.9,12.3,13.9 M12.3,13.1C12.3,13.1,12.3,13.1,12.3,13.1c-0.7,0-1.4,0.3-1.9,0.8l-7.7,8.2
				c-0.5,0.5-0.8,1.3-0.7,2c0,0.7,0.4,1.4,1,1.9l1,0.8c0.1,0.1,0.3,0.2,0.5,0.2c0,0,0.1,0,0.1,0c0.2,0,0.4-0.1,0.6-0.3l9-12.3
				c0.2-0.2,0.2-0.6,0.1-0.8c-0.1-0.3-0.4-0.4-0.7-0.5l-0.9-0.1C12.4,13.1,12.4,13.1,12.3,13.1L12.3,13.1z"/>
		</g>
		<g>
			<path class="st0" d="M58.1,30.1C58,30.1,58,30.1,58.1,30.1c-0.2,0-0.3-0.1-0.4-0.2l-7.4-13.4c-0.1-0.1-0.1-0.3,0-0.4
				c0.1-0.1,0.2-0.2,0.3-0.2c0,0,1,0.1,1,0.1c0.7,0,1.3,0.4,1.7,0.9l6.7,9.1c0.4,0.5,0.5,1.2,0.4,1.8c-0.1,0.6-0.5,1.2-1,1.5
				l-1.1,0.7C58.2,30.1,58.1,30.1,58.1,30.1z"/>
			<path class="st1" d="M50.7,16.4l0.9,0.1c0.6,0,1.1,0.3,1.4,0.8l6.7,9.1c0.6,0.9,0.4,2.1-0.5,2.7l-1.1,0.7L50.7,16.4 M50.7,15.5
				c-0.3,0-0.5,0.1-0.7,0.4c-0.2,0.3-0.2,0.6,0,0.8l7.4,13.4c0.1,0.2,0.3,0.3,0.5,0.4c0.1,0,0.1,0,0.2,0c0.2,0,0.3,0,0.4-0.1
				l1.1-0.7c0.6-0.4,1.1-1.1,1.2-1.8c0.1-0.7,0-1.5-0.5-2.1l-6.7-9.1c-0.5-0.6-1.2-1-2-1.1L50.7,15.5C50.7,15.5,50.7,15.5,50.7,15.5
				L50.7,15.5z"/>
		</g>
		<g>
			<path class="st0" d="M39.2,54.3c-0.1,0-0.2,0-0.4,0l-18.6-1.2c-1.9-0.1-3.6-1.2-4.6-2.9L7.8,35.9c-1.1-2-0.9-4.4,0.4-6.2
				l9.6-13.2c1.1-1.5,2.8-2.3,4.6-2.3c0.1,0,0.2,0,0.4,0l18.6,1.2c1.9,0.1,3.6,1.2,4.6,2.9l7.9,14.3c1.1,2,0.9,4.4-0.4,6.2
				l-9.6,13.2C42.7,53.4,41,54.3,39.2,54.3L39.2,54.3z"/>
			<path class="st1" d="M22.4,14.6c0.1,0,0.2,0,0.3,0l18.6,1.2c1.8,0.1,3.4,1.1,4.3,2.7l7.9,14.3c1,1.8,0.9,4.1-0.4,5.8l-9.6,13.2
				c-1,1.4-2.6,2.2-4.2,2.2c-0.1,0-0.2,0-0.3,0l-18.6-1.2c-1.8-0.1-3.4-1.1-4.3-2.7L8.2,35.7c-1-1.8-0.9-4.1,0.4-5.8l9.6-13.2
				C19.1,15.4,20.7,14.6,22.4,14.6 M22.4,13.8c-1.9,0-3.8,0.9-4.9,2.5L7.9,29.4c-1.4,1.9-1.6,4.5-0.4,6.6l7.9,14.3
				c1,1.8,2.9,3,4.9,3.1l18.6,1.2c0.1,0,0.3,0,0.4,0c1.9,0,3.8-0.9,4.9-2.5L53.7,39c1.4-1.9,1.6-4.5,0.4-6.6l-7.9-14.3
				c-1-1.8-2.9-3-4.9-3.1l-18.6-1.2C22.6,13.8,22.5,13.8,22.4,13.8L22.4,13.8z"/>
		</g>
		<path class="st2" d="M18.2,35.9c0,0,4.4-2.4,7.6,1.3c0,0,0.1-1.8-0.3-2.5"/>
		<path class="st3" d="M30.1,10.3c0,0,1.1-3.9,4-5.7l2,0.1c0,0-2.4,3.1-1.4,5.9"/>
		<path class="st3" d="M44,10.8L20.5,9.4c-2.3-0.1-4.4,0.9-5.8,2.7L2.6,28.8c-1.6,2.1-1.7,5-0.5,7.3l10,18.1c1.1,2,3.1,3.3,5.4,3.4
			L41,59.1c2.3,0.1,4.4-0.9,5.8-2.7L59,39.7c1.6-2.1,1.7-5,0.5-7.3l-10-18.1C48.3,12.3,46.3,11,44,10.8z"/>
		<path class="st4" d="M41.2,15.8l-18.6-1.2c-1.8-0.1-3.5,0.7-4.6,2.2L8.5,29.9c-1.2,1.7-1.4,3.9-0.4,5.8L16.1,50
			c0.9,1.6,2.5,2.6,4.3,2.7l18.6,1.2c1.8,0.1,3.5-0.7,4.6-2.2l9.6-13.2c1.2-1.7,1.4-3.9,0.4-5.8l-7.9-14.3
			C44.6,16.9,43,15.9,41.2,15.8z"/>
		<path class="st5" d="M41.3,19.2L22.2,18c-1.6-0.1-3.2,0.6-4.2,1.9L8.6,31.6c-1.3,1.7-1.5,4-0.4,5.9l7.8,12.8
			c0.9,1.4,2.3,2.3,4,2.4l19.1,1.2c1.6,0.1,3.2-0.6,4.2-1.9l9.3-11.7c1.3-1.7,1.5-4,0.4-5.9l-7.8-12.8
			C44.4,20.2,42.9,19.3,41.3,19.2z"/>
		
			<ellipse transform="matrix(5.983871e-02 -0.9982 0.9982 5.983871e-02 -6.596223e-02 74.3293)" class="st1" cx="39.4" cy="37.2" rx="4.9" ry="3.6"/>
		<ellipse class="st6" cx="36.2" cy="3.5" rx="2.2" ry="2.2"/>
		<path class="st7" d="M4.4,26.3l-1-0.8c-0.8-0.7-0.9-2-0.2-2.8l7.7-8.2c0.4-0.4,0.9-0.6,1.5-0.6l0.9,0.1L4.4,26.3z"/>
		<path class="st7" d="M58.1,29.7l1.1-0.7c0.9-0.6,1.1-1.8,0.5-2.7L53,17.2c-0.3-0.4-0.8-0.7-1.4-0.8l-0.9-0.1L58.1,29.7z"/>
		<path class="st8" d="M41.2,15.8l-18.6-1.2c-1.8-0.1-3.5,0.7-4.6,2.2L8.5,29.9c-1.2,1.7-1.4,3.9-0.4,5.8L16.1,50
			c0.9,1.6,2.5,2.6,4.3,2.7l18.6,1.2c1.8,0.1,3.5-0.7,4.6-2.2l9.6-13.2c1.2-1.7,1.4-3.9,0.4-5.8l-7.9-14.3
			C44.6,16.9,43,15.9,41.2,15.8z"/>
		<g>
			<path class="st1" d="M25.7,37.7c-0.1,0-0.3-0.1-0.4-0.2c-2.9-3.4-6.8-1.3-7-1.2c-0.2,0.1-0.5,0-0.6-0.2c-0.1-0.2,0-0.5,0.2-0.6
				c0,0,4-2.1,7.3,0.6c0-0.5-0.1-0.9-0.3-1.1c-0.1-0.2-0.1-0.5,0.1-0.6c0.2-0.1,0.5-0.1,0.6,0.1c0.5,0.8,0.4,2.6,0.4,2.8
				c0,0.2-0.1,0.3-0.3,0.4C25.8,37.7,25.8,37.7,25.7,37.7z"/>
		</g>
	</g>
	<path class="st9" d="M72.2,22.2h12.9c2.8,0,4.9,0.7,6.3,2c1.4,1.4,2.1,3.3,2.1,5.8c0,2.6-0.8,4.6-2.3,6c-1.5,1.4-3.8,2.2-7,2.2H80
		v9.4h-7.8V22.2z M80,33h1.9c1.5,0,2.5-0.3,3.1-0.8c0.6-0.5,0.9-1.2,0.9-2c0-0.8-0.3-1.5-0.8-2c-0.5-0.6-1.5-0.8-3-0.8H80V33z"/>
	<path class="st9" d="M95.3,38.5c0-2.8,0.9-5.1,2.8-6.9c1.9-1.8,4.4-2.7,7.6-2.7c3.6,0,6.4,1.1,8.2,3.2c1.5,1.7,2.2,3.8,2.2,6.4
		c0,2.8-0.9,5.1-2.8,7c-1.9,1.8-4.4,2.7-7.7,2.7c-2.9,0-5.3-0.8-7.1-2.3C96.4,43.9,95.3,41.5,95.3,38.5z M102.3,38.4
		c0,1.6,0.3,2.9,1,3.6c0.7,0.8,1.5,1.2,2.5,1.2c1,0,1.8-0.4,2.5-1.2c0.6-0.8,1-2,1-3.7c0-1.6-0.3-2.8-1-3.6
		c-0.7-0.8-1.5-1.2-2.4-1.2c-1,0-1.9,0.4-2.5,1.2C102.6,35.6,102.3,36.8,102.3,38.4z"/>
	<path class="st9" d="M119.8,22.2h7v25.4h-7V22.2z"/>
	<path class="st9" d="M129.8,29.2h7.3l3.7,12.2l3.5-12.2h6.9L144,48.9c-0.8,2.2-1.7,3.8-2.5,4.5c-1.2,1.1-3.1,1.7-5.5,1.7
		c-1,0-2.6-0.1-4.7-0.4l-0.5-4.9c1,0.3,2.1,0.5,3.4,0.5c0.8,0,1.5-0.2,2-0.6c0.5-0.4,0.9-1.1,1.3-2L129.8,29.2z"/>
	<path class="st5" d="M153.8,22.2h11.5c2.3,0,4.1,0.3,5.5,0.9c1.4,0.6,2.6,1.5,3.5,2.7c0.9,1.2,1.6,2.5,2,4.1
		c0.4,1.5,0.6,3.2,0.6,4.9c0,2.7-0.3,4.8-0.9,6.3c-0.6,1.5-1.5,2.7-2.5,3.8c-1.1,1-2.2,1.7-3.5,2c-1.7,0.5-3.2,0.7-4.6,0.7h-11.5
		V22.2z M161.5,28v13.9h1.9c1.6,0,2.8-0.2,3.5-0.5c0.7-0.4,1.2-1,1.6-1.9c0.4-0.9,0.6-2.4,0.6-4.4c0-2.7-0.4-4.5-1.3-5.5
		c-0.9-1-2.3-1.5-4.3-1.5H161.5z"/>
	<path class="st5" d="M180.9,22.2h20.8v5.4h-13v4h12.1v5.2h-12.1v5h13.4v5.8h-21.2V22.2z"/>
	<polygon class="st5" points="231.2,47.6 222.6,34.4 230.4,22.2 230.3,22.2 221.9,22.2 221.8,22.2 219.1,27.1 217.5,30 215.8,27.1 
		213.1,22.2 213.1,22.2 204.7,22.2 204.5,22.2 212.4,34.4 203.7,47.6 212.4,47.6 215.1,43.2 215.1,43.2 215.7,42.2 217.3,39.5 
		219.5,43.1 219.6,43.2 219.6,43.2 222.3,47.6 	"/>
	<g>
		<path class="st10" d="M92.7,55.1H75.8c-2.9,0-5.3-2.4-5.3-5.3v-0.6c0-2.9,2.4-5.3,5.3-5.3h16.8c2.9,0,5.3,2.4,5.3,5.3v0.6
			C97.9,52.8,95.6,55.1,92.7,55.1z"/>
		<g>
			<g>
				<path class="st1" d="M77.5,49c-0.2-0.2-0.4-0.4-0.6-0.5c-0.2-0.1-0.4-0.1-0.7-0.1c-0.3,0-0.5,0-0.7,0.1
					c-0.2,0.1-0.4,0.2-0.5,0.4c-0.1,0.2-0.2,0.4-0.3,0.6c-0.1,0.2-0.1,0.5-0.1,0.7s0,0.5,0.1,0.7s0.2,0.4,0.3,0.6
					c0.1,0.2,0.3,0.3,0.5,0.4C75.7,52,76,52,76.2,52c0.5,0,1-0.2,1.3-0.6l0.6,0.6c-0.2,0.3-0.5,0.5-0.9,0.6c-0.3,0.1-0.7,0.2-1,0.2
					c-0.4,0-0.7-0.1-1.1-0.2c-0.3-0.1-0.6-0.3-0.8-0.5s-0.4-0.5-0.5-0.8c-0.1-0.3-0.2-0.7-0.2-1.1c0-0.4,0.1-0.7,0.2-1
					c0.1-0.3,0.3-0.6,0.5-0.8c0.2-0.2,0.5-0.4,0.8-0.5c0.3-0.1,0.7-0.2,1-0.2c0.4,0,0.7,0.1,1,0.2c0.3,0.1,0.6,0.3,0.9,0.6L77.5,49z
					"/>
				<path class="st1" d="M86.1,45l0.8-0.4v7.7l-0.8,0.4V45z"/>
				<path class="st1" d="M88.8,50.2c0-0.4,0.1-0.7,0.2-1.1c0.1-0.3,0.3-0.6,0.6-0.8c0.2-0.2,0.5-0.4,0.8-0.5
					c0.3-0.1,0.7-0.2,1.1-0.2s0.7,0.1,1.1,0.2c0.3,0.1,0.6,0.3,0.8,0.5c0.2,0.2,0.4,0.5,0.6,0.8c0.1,0.3,0.2,0.7,0.2,1.1
					c0,0.4-0.1,0.7-0.2,1.1c-0.1,0.3-0.3,0.6-0.6,0.8c-0.2,0.2-0.5,0.4-0.8,0.5c-0.3,0.1-0.7,0.2-1.1,0.2s-0.7-0.1-1.1-0.2
					c-0.3-0.1-0.6-0.3-0.8-0.5c-0.2-0.2-0.4-0.5-0.6-0.8C88.9,50.9,88.8,50.6,88.8,50.2z M89.7,50.2c0,0.3,0,0.5,0.1,0.7
					c0.1,0.2,0.2,0.4,0.4,0.6c0.2,0.2,0.3,0.3,0.6,0.4C91,52,91.2,52,91.5,52s0.5,0,0.7-0.1c0.2-0.1,0.4-0.2,0.6-0.4
					c0.2-0.2,0.3-0.4,0.4-0.6c0.1-0.2,0.1-0.5,0.1-0.7c0-0.3,0-0.5-0.1-0.7c-0.1-0.2-0.2-0.4-0.4-0.6c-0.2-0.2-0.3-0.3-0.6-0.4
					c-0.2-0.1-0.5-0.1-0.7-0.1s-0.5,0-0.7,0.1c-0.2,0.1-0.4,0.2-0.6,0.4c-0.2,0.2-0.3,0.4-0.4,0.6C89.8,49.7,89.7,49.9,89.7,50.2z"
					/>
			</g>
			<path class="st1" d="M82.7,51.9C82.5,52,82.2,52,81.8,52c-0.2,0-0.4,0-0.6-0.1s-0.4-0.2-0.5-0.3c-0.1-0.1-0.3-0.3-0.3-0.5
				c-0.1-0.2-0.1-0.4-0.2-0.6h4v-0.3c0-0.4-0.1-0.8-0.2-1.1c-0.1-0.3-0.3-0.6-0.5-0.8c-0.2-0.2-0.5-0.4-0.7-0.5
				c-0.3-0.1-0.6-0.2-1-0.2c-0.4,0-0.7,0.1-1,0.2c-0.3,0.1-0.6,0.3-0.8,0.5c-0.2,0.2-0.4,0.5-0.5,0.8c-0.1,0.3-0.2,0.7-0.2,1.1
				c0,0.4,0.1,0.7,0.2,1c0.1,0.3,0.3,0.6,0.5,0.8c0.2,0.2,0.5,0.4,0.8,0.6c0.3,0.1,0.7,0.2,1.1,0.2c0.5,0,0.9-0.1,1.2-0.2
				c0.1,0,0.2-0.1,0.3-0.1v-1.1C83.2,51.6,83,51.7,82.7,51.9z M80.7,48.7c0.3-0.3,0.7-0.4,1.1-0.4c0.5,0,0.8,0.1,1.1,0.4
				c0.3,0.3,0.4,0.6,0.4,1h-3.1C80.3,49.3,80.4,49,80.7,48.7z"/>
		</g>
	</g>
	<g>
		<path class="st10" d="M235.4,22.2v2.6h-2.6v-2.6H235.4z"/>
		<path class="st10" d="M239.5,25.7v2.9l-1.9,1l1.9,1.2v2.7l-3.2-2.2l-3.5,2.3v-2.8l2.2-1.2l-2.2-1.4v-2.6l3.5,2.3L239.5,25.7z"/>
		<path class="st10" d="M239.5,33.7v2.6l-4.4,1.3l4.4,1.2v2.4l-7.1-2.5c-0.8-0.3-1.4-0.6-1.6-0.9c-0.4-0.4-0.6-1.1-0.6-1.9
			c0-0.3,0.1-0.9,0.2-1.6L232,34c-0.1,0.3-0.2,0.7-0.2,1.2c0,0.3,0.1,0.5,0.2,0.7c0.1,0.2,0.4,0.3,0.7,0.4L239.5,33.7z"/>
		<path class="st10" d="M239.5,41.5v5.9H238l-3.4-3.2v3.4h-1.7v-6.3h1.7l3.3,3v-2.8H239.5z"/>
	</g>
</g>
</svg>
