<svg id="Layer_1" data-name="Layer 1" xmlns="http://www.w3.org/2000/svg" width="24" height="24" viewBox="0 0 24 24"><defs><style>.cls-1{fill:#fff;}.cls-2{fill:none;}</style></defs><path class="cls-1" d="M18.24,6.16A14.39,14.39,0,0,0,14.57,5h-.05a9,9,0,0,0-.46,1A12.94,12.94,0,0,0,9.94,6a9,9,0,0,0-.46-1H9.42A15,15,0,0,0,5.76,6.16,15.84,15.84,0,0,0,3.07,16.64,14.9,14.9,0,0,0,7.59,19a.09.09,0,0,0,.07,0,13.2,13.2,0,0,0,.92-1.53.06.06,0,0,0,0-.08,10.63,10.63,0,0,1-1.4-.68.06.06,0,0,1,0-.08l0,0,.28-.22a10.61,10.61,0,0,0,9.11,0h.06a3.11,3.11,0,0,0,.28.23.06.06,0,0,1,0,.08s0,0,0,0a10.63,10.63,0,0,1-1.4.68,0,0,0,0,0,0,.07h0A13.12,13.12,0,0,0,16.33,19a.09.09,0,0,0,.07,0,15,15,0,0,0,4.5-2.32A15.71,15.71,0,0,0,18.24,6.16ZM9,14.55A1.75,1.75,0,0,1,7.4,12.7,1.74,1.74,0,0,1,9,10.85a1.73,1.73,0,0,1,1.61,1.84h0A1.75,1.75,0,0,1,9,14.55Zm7.61-1.85A1.75,1.75,0,0,1,15,14.55a1.74,1.74,0,0,1-1.62-1.85A1.74,1.74,0,0,1,15,10.85a1.73,1.73,0,0,1,1.61,1.84Z"/><rect class="cls-2" width="24" height="24"/><rect class="cls-2" width="24" height="24"/></svg>