<svg id="Layer_1" data-name="Layer 1" xmlns="http://www.w3.org/2000/svg" width="24" height="24" viewBox="0 0 24 24"><defs><style>.cls-1{fill:#fff;}.cls-2{fill:none;}</style></defs><path class="cls-1" d="M12,3a9,9,0,1,0,9,9A9,9,0,0,0,12,3Zm6.25,4.18-1,1a.28.28,0,0,0-.11.28v7a.32.32,0,0,0,.11.29l1,1V17H13.34v-.18l1-1c.09-.1.09-.13.09-.28V9.81L11.62,17h-.38L8,9.79v4.82a.65.65,0,0,0,.16.55l1.31,1.63V17H5.75v-.23l1.31-1.65a.62.62,0,0,0,.17-.55V9a.44.44,0,0,0-.16-.37L5.91,7.21V7H9.53l2.8,6.19L14.79,7h3.46Z"/><rect class="cls-2" width="24" height="24"/></svg>