<svg id="Layer_1" data-name="Layer 1" xmlns="http://www.w3.org/2000/svg" width="24" height="24" viewBox="0 0 24 24"><defs><style>.cls-1{fill:none;}.cls-2{fill:#fff;}</style></defs><rect class="cls-1" width="24" height="24"/><path class="cls-2" d="M18.9,7.48a3.8,3.8,0,0,0,1.63-2.05,7.44,7.44,0,0,1-2.36.9,3.71,3.71,0,0,0-6.31,3.38A10.5,10.5,0,0,1,4.23,5.83a3.72,3.72,0,0,0,1.13,4.95,3.77,3.77,0,0,1-1.68-.46h0a3.71,3.71,0,0,0,3,3.63A3.66,3.66,0,0,1,5,14a3.72,3.72,0,0,0,3.47,2.57,7.41,7.41,0,0,1-4.61,1.59,4.83,4.83,0,0,1-.85,0,10.48,10.48,0,0,0,16.2-8.87V8.81A7.15,7.15,0,0,0,21,6.89,7.34,7.34,0,0,1,18.9,7.48Z"/><rect class="cls-1" width="24" height="24"/></svg>