<svg width="32" height="32" viewBox="0 0 32 32" fill="none" xmlns="http://www.w3.org/2000/svg"><circle cx="16" cy="16" r="16" fill="#8247E5"/><path d="M21.4858 12.2697C21.1018 12.0503 20.6081 12.0503 20.1692 12.2697L17.0972 14.08L15.0126 15.232L11.9955 17.0423C11.6115 17.2617 11.1178 17.2617 10.6789 17.0423L8.32007 15.616C7.93607 15.3966 7.66178 14.9577 7.66178 14.464V11.7211C7.66178 11.2823 7.88121 10.8434 8.32007 10.5691L10.6789 9.19772C11.0629 8.97829 11.5566 8.97829 11.9955 9.19772L14.3544 10.624C14.7384 10.8434 15.0126 11.2823 15.0126 11.776V13.5863L17.0972 12.3794V10.5143C17.0972 10.0754 16.8778 9.63657 16.4389 9.36229L12.0504 6.784C11.6664 6.56457 11.1726 6.56457 10.7338 6.784L6.2355 9.41715C5.79664 9.63657 5.57721 10.0754 5.57721 10.5143V15.6709C5.57721 16.1097 5.79664 16.5486 6.2355 16.8229L10.6789 19.4011C11.0629 19.6206 11.5566 19.6206 11.9955 19.4011L15.0126 17.6457L17.0972 16.4389L20.1144 14.6834C20.4984 14.464 20.9921 14.464 21.4309 14.6834L23.7898 16.0549C24.1738 16.2743 24.4481 16.7131 24.4481 17.2069V19.9497C24.4481 20.3886 24.2286 20.8274 23.7898 21.1017L21.4858 22.4731C21.1018 22.6926 20.6081 22.6926 20.1692 22.4731L17.8104 21.1017C17.4264 20.8823 17.1521 20.4434 17.1521 19.9497V18.1943L15.0675 19.4011V21.2114C15.0675 21.6503 15.2869 22.0891 15.7258 22.3634L20.1692 24.9417C20.5532 25.1611 21.0469 25.1611 21.4858 24.9417L25.9292 22.3634C26.3132 22.144 26.5875 21.7051 26.5875 21.2114V16C26.5875 15.5611 26.3681 15.1223 25.9292 14.848L21.4858 12.2697Z" fill="white"/></svg>