<svg width="32" height="32" viewBox="0 0 32 32" fill="none" xmlns="http://www.w3.org/2000/svg">
<path d="M32 0H0V32H32V0Z" fill="white"/>
<path d="M21.1904 12.4525C20.8283 12.2457 20.3629 12.2457 19.9491 12.4525L17.0528 14.1592L15.0875 15.2453L12.243 16.9521C11.881 17.1589 11.4155 17.1589 11.0017 16.9521L8.77784 15.6074C8.4158 15.4005 8.15721 14.9867 8.15721 14.5213V11.9353C8.15721 11.5216 8.36409 11.1078 8.77784 10.8492L11.0017 9.55627C11.3638 9.3494 11.8292 9.3494 12.243 9.55627L14.4669 10.901C14.8289 11.1078 15.0875 11.5216 15.0875 11.9871V13.6938L17.0528 12.556V10.7975C17.0528 10.3838 16.846 9.97002 16.4322 9.71143L12.2947 7.28064C11.9327 7.07377 11.4672 7.07377 11.0535 7.28064L6.81252 9.76315C6.39877 9.97002 6.19189 10.3838 6.19189 10.7975V15.6591C6.19189 16.0728 6.39877 16.4866 6.81252 16.7452L11.0017 19.176C11.3638 19.3828 11.8292 19.3828 12.243 19.176L15.0875 17.521L17.0528 16.3832L19.8974 14.7282C20.2594 14.5213 20.7249 14.5213 21.1386 14.7282L23.3625 16.0211C23.7246 16.228 23.9832 16.6418 23.9832 17.1072V19.6932C23.9832 20.1069 23.7763 20.5207 23.3625 20.7793L21.1904 22.0722C20.8283 22.2791 20.3629 22.2791 19.9491 22.0722L17.7252 20.7793C17.3632 20.5724 17.1046 20.1586 17.1046 19.6932V18.0382L15.1393 19.176V20.8827C15.1393 21.2964 15.3461 21.7102 15.7599 21.9688L19.9491 24.3996C20.3111 24.6064 20.7766 24.6064 21.1904 24.3996L25.3796 21.9688C25.7416 21.7619 26.0002 21.3482 26.0002 20.8827V15.9694C26.0002 15.5557 25.7933 15.1419 25.3796 14.8833L21.1904 12.4525Z" fill="#8247E5"/>
</svg>
